<svg xmlns="http://www.w3.org/2000/svg" width="20" height="20" viewBox="0 0 20 20">
  <g id="Group_15587" data-name="Group 15587" transform="translate(-8622 75)">
    <rect id="Rectangle_3633" data-name="Rectangle 3633" width="20" height="20" transform="translate(8622 -75)" fill="none"/>
    <path id="truck" d="M15.762,4.949l2.491,3.308v4.164H16.619a2.525,2.525,0,0,1-2.51,2.491,2.352,2.352,0,0,1-1.751-.739,2.426,2.426,0,0,1-.72-1.751H6.655a2.394,2.394,0,0,1-.739,1.751,2.416,2.416,0,0,1-1.771.739,2.352,2.352,0,0,1-1.751-.739,2.426,2.426,0,0,1-.72-1.751H0V3.275A1.615,1.615,0,0,1,.486,2.088,1.615,1.615,0,0,1,1.674,1.6h11.6V4.949h2.491ZM4.145,13.667A1.263,1.263,0,0,0,5.41,12.4a1.154,1.154,0,0,0-.37-.876,1.253,1.253,0,0,0-.9-.35A1.2,1.2,0,0,0,2.919,12.4a1.259,1.259,0,0,0,.35.9A1.158,1.158,0,0,0,4.145,13.667ZM15.373,6.194h-2.1V8.257h3.7Zm-1.265,7.472A1.263,1.263,0,0,0,15.373,12.4a1.154,1.154,0,0,0-.37-.876,1.253,1.253,0,0,0-.9-.35A1.2,1.2,0,0,0,12.882,12.4a1.259,1.259,0,0,0,.35.9A1.158,1.158,0,0,0,14.108,13.667Z" transform="translate(8622.874 -73.257)" fill="#fff"/>
  </g>
</svg>
