<svg xmlns="http://www.w3.org/2000/svg" width="64" height="64" viewBox="0 0 64 64">
  <g id="Group_16565" data-name="Group 16565" transform="translate(0.173 0)">
    <rect id="Rectangle_18157" data-name="Rectangle 18157" width="64" height="64" transform="translate(-0.173 0)" fill="#4ebc33" opacity="0"/>
    <g id="Group_16567" data-name="Group 16567" transform="translate(-0.172)">
      <rect id="Rectangle_18157-2" data-name="Rectangle 18157" width="64" height="64" transform="translate(0 0)" fill="#4ebc33" opacity="0"/>
      <g id="truck" transform="translate(8.174 14.598)">
        <path id="Path_1981" data-name="Path 1981" d="M0,9.05A4.55,4.55,0,0,1,4.55,4.5h27.3A4.55,4.55,0,0,1,36.4,9.05V30.285H33.368V9.05a1.517,1.517,0,0,0-1.517-1.517H4.55A1.517,1.517,0,0,0,3.033,9.05V30.285A1.517,1.517,0,0,0,4.55,31.8v3.033A4.55,4.55,0,0,1,0,30.285ZM13.651,31.8h18.2v3.033h-18.2Z" transform="translate(0 -4.5)" fill="#4ebc33" stroke="#4ebc33" stroke-width="0.3" fill-rule="evenodd"/>
        <path id="Path_1982" data-name="Path 1982" d="M32.585,11.25h6.128a4.55,4.55,0,0,1,3.549,1.708l4.492,5.613a4.55,4.55,0,0,1,1,2.846v6.517a4.55,4.55,0,0,1-4.55,4.55H40.167V29.451H43.2a1.517,1.517,0,0,0,1.517-1.517V21.411a1.517,1.517,0,0,0-.333-.946l-4.49-5.613a1.517,1.517,0,0,0-1.182-.569H35.618V27.934H32.585ZM8.317,35.518a3.033,3.033,0,1,0-3.033-3.033A3.033,3.033,0,0,0,8.317,35.518Zm0,3.033A6.067,6.067,0,1,0,2.25,32.484,6.067,6.067,0,0,0,8.317,38.551Z" transform="translate(0.783 -2.15)" fill="#4ebc33" stroke="#4ebc33" stroke-width="0.3" fill-rule="evenodd"/>
        <path id="Path_1983" data-name="Path 1983" d="M28.567,31.6a3.033,3.033,0,1,0-3.033-3.033A3.033,3.033,0,0,0,28.567,31.6Zm0,3.033A6.067,6.067,0,1,0,22.5,28.567,6.067,6.067,0,0,0,28.567,34.634Z" transform="translate(7.835 1.768)" fill="#4ebc33" stroke="#4ebc33" stroke-width="0.3" fill-rule="evenodd"/>
      </g>
    </g>
  </g>
</svg>
