<svg xmlns="http://www.w3.org/2000/svg" width="49" height="38" viewBox="0 0 49 38">
  <path id="envelope-o" d="M45.5,33.682V12.955a16,16,0,0,1-1.887,1.781Q36.286,20.3,31.966,23.859q-1.4,1.161-2.269,1.808a12.623,12.623,0,0,1-2.366,1.309,6.945,6.945,0,0,1-2.8.661h-.054a6.935,6.935,0,0,1-2.8-.661A12.682,12.682,0,0,1,19.3,25.667q-.875-.648-2.269-1.808Q12.716,20.3,5.387,14.736A16,16,0,0,1,3.5,12.955V33.683a.825.825,0,0,0,.26.607.846.846,0,0,0,.615.257H44.625a.846.846,0,0,0,.615-.257.825.825,0,0,0,.26-.607Zm0-28.366V4.655L45.487,4.3l-.082-.337-.15-.243-.246-.2-.382-.067H4.375a.846.846,0,0,0-.615.257.825.825,0,0,0-.26.607,9.408,9.408,0,0,0,4.019,7.664q5.277,4.1,10.965,8.555.165.134.957.8T20.7,22.346q.465.349,1.217.85a7.178,7.178,0,0,0,1.382.743,3.319,3.319,0,0,0,1.176.243h.054a3.272,3.272,0,0,0,1.176-.243,7.372,7.372,0,0,0,1.382-.742q.753-.5,1.215-.85t1.258-1.012q.795-.66.957-.8Q36.2,16.085,41.48,11.984a12.74,12.74,0,0,0,2.748-3.117A6.693,6.693,0,0,0,45.5,5.317Zm3.5-1V33.682a4.131,4.131,0,0,1-1.285,3.05A4.24,4.24,0,0,1,44.625,38H4.375a4.24,4.24,0,0,1-3.09-1.268A4.131,4.131,0,0,1,0,33.682V4.318a4.131,4.131,0,0,1,1.285-3.05A4.24,4.24,0,0,1,4.375,0H44.624a4.24,4.24,0,0,1,3.09,1.268A4.131,4.131,0,0,1,49,4.318Z" fill="#63b24f"/>
</svg>
