<svg xmlns="http://www.w3.org/2000/svg" width="25" height="19" viewBox="0 0 25 19">
  <g id="Group_16188" data-name="Group 16188" transform="translate(14889 3911)">
    <path id="Path_2168" data-name="Path 2168" d="M0,0H25V19H0Z" transform="translate(-14889 -3911)" fill="#012169"/>
    <path id="Path_2169" data-name="Path 2169" d="M2.93,0l9.531,7.165L21.953,0H25V2.454L15.625,9.54,25,16.585V19H21.875L12.5,11.915,3.164,19H0V16.625L9.336,9.579,0,2.533V0Z" transform="translate(-14889 -3911)" fill="#fff"/>
    <path id="Path_2170" data-name="Path 2170" d="M16.562,11.123,25,17.417V19L14.414,11.123Zm-7.187.792L9.609,13.3,2.109,19H0ZM25,0V.119L15.273,7.56l.078-1.742L23.047,0ZM0,0,9.336,6.967H6.992L0,1.663Z" transform="translate(-14889 -3911)" fill="#c8102e"/>
    <path id="Path_2171" data-name="Path 2171" d="M9.414,0V19h6.25V0ZM0,6.333v6.333H25V6.333Z" transform="translate(-14889 -3911)" fill="#fff"/>
    <path id="Path_2172" data-name="Path 2172" d="M0,7.64v3.8H25V7.64ZM10.664,0V19h3.75V0Z" transform="translate(-14889 -3911)" fill="#c8102e"/>
  </g>
</svg>
