<svg xmlns="http://www.w3.org/2000/svg" width="30" height="30" viewBox="0 0 30 30">
  <path id="linkedin-svgrepo-com" d="M0,9.378V31.81a3.749,3.749,0,0,0,3.784,3.784H26.216a3.9,3.9,0,0,0,2.658-1.126A3.626,3.626,0,0,0,30,31.81V9.378a3.749,3.749,0,0,0-3.784-3.784H3.784A3.631,3.631,0,0,0,1.126,6.72,3.891,3.891,0,0,0,0,9.378ZM4.055,12.35a2.694,2.694,0,0,1,2.613-2.7,2.74,2.74,0,0,1,2.7,2.7,2.673,2.673,0,0,1-2.7,2.658A2.626,2.626,0,0,1,4.055,12.35Zm7.252,18.513V17.125a.626.626,0,0,1,.541-.585h3.828c.541,0,.541.631.541,1.036a5.242,5.242,0,0,1,3.919-1.352c3.514,0,5.766,1.666,5.766,5.361v9.28a.59.59,0,0,1-.541.585H21.4a.588.588,0,0,1-.541-.585V22.486c0-1.4-.405-2.162-1.982-2.162-1.982,0-2.478,1.306-2.478,3.063v7.478a.637.637,0,0,1-.631.585H11.845a.672.672,0,0,1-.541-.585Zm-7.162,0V17.125a.626.626,0,0,1,.541-.585H8.6a.544.544,0,0,1,.585.585V30.863a.6.6,0,0,1-.585.585H4.685a.625.625,0,0,1-.541-.585Z" transform="translate(0 -5.594)" fill="#91aab5"/>
</svg>
