<svg xmlns="http://www.w3.org/2000/svg" width="11.996" height="12.002" viewBox="0 0 11.996 12.002">
  <path id="Path_96" data-name="Path 96" d="M11.729,9.495,9.876,7.637a.964.964,0,0,0-1.362.026L7.581,8.6,7.4,8.5A9.335,9.335,0,0,1,5.152,6.868,9.357,9.357,0,0,1,3.525,4.612c-.035-.063-.068-.123-.1-.18l.627-.627.308-.31A.969.969,0,0,0,4.384,2.13L2.531.271A.964.964,0,0,0,1.169.3L.647.824.661.838a3.029,3.029,0,0,0-.43.761A3.149,3.149,0,0,0,.04,2.37C-.2,4.4.722,6.263,3.237,8.785c3.476,3.486,6.278,3.223,6.4,3.21a3.191,3.191,0,0,0,.772-.194,3.032,3.032,0,0,0,.756-.43l.011.01.529-.519A.972.972,0,0,0,11.729,9.495Z" transform="translate(-0.002 -0.002)" fill="#63b24f" fill-rule="evenodd"/>
</svg>
