<svg id="Group_267" data-name="Group 267" xmlns="http://www.w3.org/2000/svg" width="30" height="30" viewBox="0 0 30 30">
  <path id="Path_99" data-name="Path 99" d="M19.063,0H6.937A8.947,8.947,0,0,0-2,8.937V21.063A8.947,8.947,0,0,0,6.937,30H19.063A8.947,8.947,0,0,0,28,21.063V8.937A8.947,8.947,0,0,0,19.063,0Zm5.919,21.063a5.919,5.919,0,0,1-5.919,5.919H6.937a5.919,5.919,0,0,1-5.919-5.919V8.937A5.919,5.919,0,0,1,6.937,3.018H19.063a5.919,5.919,0,0,1,5.919,5.919V21.063Z" transform="translate(2 0)" fill="#91aab5"/>
  <path id="Path_100" data-name="Path 100" d="M138.77,133a7.77,7.77,0,1,0,7.77,7.77A7.779,7.779,0,0,0,138.77,133Zm0,12.518a4.748,4.748,0,1,1,4.748-4.748A4.748,4.748,0,0,1,138.77,145.518Z" transform="translate(-123.77 -125.77)" fill="#91aab5"/>
  <circle id="Ellipse_2" data-name="Ellipse 2" cx="1.856" cy="1.856" r="1.856" transform="translate(20.919 5.441)" fill="#91aab5"/>
</svg>
