<svg xmlns="http://www.w3.org/2000/svg" width="85" height="85" viewBox="0 0 85 85">
  <g id="Group_16679" data-name="Group 16679" transform="translate(-328 -1472)">
    <circle id="Ellipse_134" data-name="Ellipse 134" cx="42.5" cy="42.5" r="42.5" transform="translate(328 1472)" fill="#63b24f"/>
    <g id="Group_13824" data-name="Group 13824" transform="translate(348.826 1492.826)">
      <g id="apps-svgrepo-com" transform="translate(5.015 5.015)">
        <path id="Path_4145" data-name="Path 4145" d="M4,6.082A2.082,2.082,0,0,1,6.082,4h8.329a2.082,2.082,0,0,1,2.082,2.082v8.329a2.082,2.082,0,0,1-2.082,2.082H6.082A2.082,2.082,0,0,1,4,14.412Z" transform="translate(-4 -4)" fill="none" stroke="#fff" stroke-linecap="round" stroke-linejoin="round" stroke-width="3"/>
        <path id="Path_4146" data-name="Path 4146" d="M4,16.082A2.082,2.082,0,0,1,6.082,14h8.329a2.082,2.082,0,0,1,2.082,2.082v8.329a2.082,2.082,0,0,1-2.082,2.082H6.082A2.082,2.082,0,0,1,4,24.412Z" transform="translate(-4 6.824)" fill="none" stroke="#fff" stroke-linecap="round" stroke-linejoin="round" stroke-width="3"/>
        <path id="Path_4147" data-name="Path 4147" d="M14,6.082A2.082,2.082,0,0,1,16.082,4h8.329a2.082,2.082,0,0,1,2.082,2.082v8.329a2.082,2.082,0,0,1-2.082,2.082H16.082A2.082,2.082,0,0,1,14,14.412Z" transform="translate(6.824 -4)" fill="none" stroke="#fff" stroke-linecap="round" stroke-linejoin="round" stroke-width="3"/>
        <path id="Path_4148" data-name="Path 4148" d="M14,16.082A2.082,2.082,0,0,1,16.082,14h8.329a2.082,2.082,0,0,1,2.082,2.082v8.329a2.082,2.082,0,0,1-2.082,2.082H16.082A2.082,2.082,0,0,1,14,24.412Z" transform="translate(6.824 6.824)" fill="none" stroke="#fff" stroke-linecap="round" stroke-linejoin="round" stroke-width="3"/>
      </g>
    </g>
  </g>
</svg>
