<svg xmlns="http://www.w3.org/2000/svg" width="85" height="85" viewBox="0 0 85 85">
  <g id="Group_16677" data-name="Group 16677" transform="translate(-328 -1472)">
    <circle id="Ellipse_134" data-name="Ellipse 134" cx="42.5" cy="42.5" r="42.5" transform="translate(328 1472)" fill="#63b24f"/>
    <g id="cog-line" transform="translate(347.5 1491.5)">
      <path id="Path_4153" data-name="Path 4153" d="M21.016,11a9.916,9.916,0,1,0,9.916,9.916A9.855,9.855,0,0,0,21.016,11Zm0,17A7.083,7.083,0,1,1,28.1,20.916,7.014,7.014,0,0,1,21.016,28Z" transform="translate(2.108 2.084)" fill="#fff" stroke="#fff" stroke-width="0.5"/>
      <path id="Path_4154" data-name="Path 4154" d="M42.425,18.669,38.75,17.488l-.788-1.969L39.8,12.106a2.207,2.207,0,0,0-.394-2.494l-3.15-3.15a2.207,2.207,0,0,0-2.494-.394L30.35,7.906l-1.969-.787L27.2,3.444A2.133,2.133,0,0,0,25.231,2H20.769a1.84,1.84,0,0,0-1.837,1.575L17.75,7.25a5.8,5.8,0,0,0-2.1.787L12.238,6.2a2.207,2.207,0,0,0-2.494.394l-3.15,3.15A2.207,2.207,0,0,0,6.2,12.238l1.706,3.281c-.262.656-.525,1.444-.787,2.1L3.444,18.8A2.133,2.133,0,0,0,2,20.769v4.463A2.09,2.09,0,0,0,3.575,27.2L7.25,28.381l.787,1.969L6.2,33.763a2.207,2.207,0,0,0,.394,2.494l3.15,3.15a2.207,2.207,0,0,0,2.494.394l3.413-1.837,1.969.788L18.8,42.556A2.133,2.133,0,0,0,20.769,44h4.463A2.133,2.133,0,0,0,27.2,42.556l1.181-3.806,1.969-.788L33.763,39.8a2.207,2.207,0,0,0,2.494-.394l3.15-3.15a2.207,2.207,0,0,0,.394-2.494L37.963,30.35l.788-1.969L42.556,27.2A2.133,2.133,0,0,0,44,25.231V20.769a2.246,2.246,0,0,0-1.575-2.1Zm-1.05,6.169L36.65,26.281l-.131.656-1.181,2.756-.394.656,2.362,4.331-2.625,2.625L30.35,34.944l-.656.394a12.46,12.46,0,0,1-2.756,1.181l-.656.131-1.444,4.725H21.163L19.719,36.65l-.656-.131-2.756-1.181-.656-.394-4.331,2.362L8.694,34.681l2.363-4.331-.394-.656a12.46,12.46,0,0,1-1.181-2.756l-.131-.656L4.625,24.838V21.163L9.088,19.85l.262-.656a11.141,11.141,0,0,1,1.181-2.888l.394-.656L8.694,11.319l2.625-2.625,4.2,2.363.656-.394a11.141,11.141,0,0,1,2.888-1.181l.656-.262,1.444-4.594h3.675l1.444,4.594.656.262a12.46,12.46,0,0,1,2.756,1.181l.656.394,4.331-2.363,2.625,2.625L34.944,15.65l.394.656a12.46,12.46,0,0,1,1.181,2.756l.131.656,4.725,1.444Z" fill="#fff" stroke="#fff" stroke-width="0.5"/>
    </g>
  </g>
</svg>
