<svg xmlns="http://www.w3.org/2000/svg" width="85" height="85" viewBox="0 0 85 85">
  <g id="Group_16675" data-name="Group 16675" transform="translate(-328 -1472)">
    <circle id="Ellipse_134" data-name="Ellipse 134" cx="42.5" cy="42.5" r="42.5" transform="translate(328 1472)" fill="#63b24f"/>
    <g id="star" transform="translate(347.997 1492.878)">
      <path id="Path_4150" data-name="Path 4150" d="M8.06,41.3a1.491,1.491,0,0,0,2.1,1.66L22.5,36.646l12.343,6.316a1.49,1.49,0,0,0,2.1-1.657L34.612,28.061l9.908-9.4a1.555,1.555,0,0,0-.8-2.659L29.95,14.058,23.805,1.943a1.445,1.445,0,0,0-2.607,0L15.056,14.06,1.282,16.009a1.555,1.555,0,0,0-.8,2.659l9.908,9.4L8.06,41.307Zm13.794-7.747-10.366,5.3L13.44,27.779a1.577,1.577,0,0,0-.459-1.414L4.809,18.61,16.2,17a1.476,1.476,0,0,0,1.1-.806L22.5,5.95,27.7,16.191A1.476,1.476,0,0,0,28.8,17l11.4,1.61-8.172,7.755a1.575,1.575,0,0,0-.459,1.417l1.951,11.078-10.366-5.3a1.421,1.421,0,0,0-1.3,0Z" transform="translate(0 0)" fill="#fff" stroke="#fff" stroke-width="0.5" fill-rule="evenodd"/>
    </g>
  </g>
</svg>
