<svg xmlns="http://www.w3.org/2000/svg" width="85" height="85" viewBox="0 0 85 85">
  <g id="Group_16676" data-name="Group 16676" transform="translate(-328 -1472)">
    <circle id="Ellipse_134" data-name="Ellipse 134" cx="42.5" cy="42.5" r="42.5" transform="translate(328 1472)" fill="#63b24f"/>
    <g id="clock" transform="translate(350 1494)">
      <path id="Path_4151" data-name="Path 4151" d="M21,39.375A18.375,18.375,0,1,0,2.625,21,18.375,18.375,0,0,0,21,39.375ZM42,21A21,21,0,1,1,21,0,21,21,0,0,1,42,21Z" fill="#fff" stroke="#fff" stroke-width="1" fill-rule="evenodd"/>
      <path id="Path_4152" data-name="Path 4152" d="M17.085,6.75A1.335,1.335,0,0,1,18.42,8.085V22l8.673,4.956a1.335,1.335,0,0,1-1.325,2.318l-9.346-5.341a1.335,1.335,0,0,1-.673-1.16V8.085A1.335,1.335,0,0,1,17.085,6.75Z" transform="translate(2.501 0.971)" fill="#fff" stroke="#fff" stroke-width="1" fill-rule="evenodd"/>
    </g>
  </g>
</svg>
