<svg xmlns="http://www.w3.org/2000/svg" width="15.691" height="15.691" viewBox="0 0 15.691 15.691">
  <path id="ic_shopping_cart_24px" d="M5.707,14.553a1.569,1.569,0,1,0,1.569,1.569A1.567,1.567,0,0,0,5.707,14.553ZM1,2V3.569H2.569L5.394,9.524,4.334,11.446a1.517,1.517,0,0,0-.2.753,1.574,1.574,0,0,0,1.569,1.569h9.415V12.2H6.037a.194.194,0,0,1-.2-.2l.024-.094L6.57,10.63h5.845a1.562,1.562,0,0,0,1.373-.808L16.6,4.73a.767.767,0,0,0,.094-.377.787.787,0,0,0-.785-.785H4.3L3.566,2H1ZM13.553,14.553a1.569,1.569,0,1,0,1.569,1.569A1.567,1.567,0,0,0,13.553,14.553Z" transform="translate(-1 -2)" fill="#63b24f"/>
</svg>
