<svg xmlns="http://www.w3.org/2000/svg" width="25" height="25" viewBox="0 0 25 25">
  <g id="Group_267" data-name="Group 267" transform="translate(0 0)">
    <path id="Path_99" data-name="Path 99" d="M15.552,0H5.448A7.456,7.456,0,0,0-2,7.448v10.1A7.456,7.456,0,0,0,5.448,25h10.1A7.456,7.456,0,0,0,23,17.552V7.448A7.456,7.456,0,0,0,15.552,0Zm4.933,17.552a4.933,4.933,0,0,1-4.933,4.933H5.448A4.933,4.933,0,0,1,.515,17.552V7.448A4.933,4.933,0,0,1,5.448,2.515h10.1a4.933,4.933,0,0,1,4.933,4.933v10.1Z" transform="translate(2 0)" fill="#fff"/>
    <path id="Path_100" data-name="Path 100" d="M137.475,133a6.475,6.475,0,1,0,6.475,6.475A6.482,6.482,0,0,0,137.475,133Zm0,10.431a3.956,3.956,0,1,1,3.956-3.956A3.956,3.956,0,0,1,137.475,143.431Z" transform="translate(-124.975 -126.975)" fill="#fff"/>
    <circle id="Ellipse_2" data-name="Ellipse 2" cx="1.547" cy="1.547" r="1.547" transform="translate(17.433 4.534)" fill="#fff"/>
  </g>
</svg>
