<svg xmlns="http://www.w3.org/2000/svg" width="25" height="25" viewBox="0 0 25 25">
  <path id="linkedin-svgrepo-com" d="M0,8.747V27.441a3.124,3.124,0,0,0,3.153,3.153H21.847a3.248,3.248,0,0,0,2.215-.938A3.021,3.021,0,0,0,25,27.441V8.747a3.124,3.124,0,0,0-3.153-3.153H3.153a3.026,3.026,0,0,0-2.215.938A3.243,3.243,0,0,0,0,8.747Zm3.379,2.477A2.245,2.245,0,0,1,5.557,8.972a2.284,2.284,0,0,1,2.252,2.252,2.228,2.228,0,0,1-2.252,2.215A2.188,2.188,0,0,1,3.379,11.224ZM9.422,26.652V15.2a.522.522,0,0,1,.45-.488h3.19c.45,0,.45.526.45.864a4.368,4.368,0,0,1,3.266-1.127c2.928,0,4.8,1.389,4.8,4.467v7.733a.491.491,0,0,1-.45.488h-3.3a.49.49,0,0,1-.45-.488V19.671c0-1.164-.338-1.8-1.652-1.8-1.652,0-2.065,1.088-2.065,2.553v6.232a.531.531,0,0,1-.526.488H9.871a.56.56,0,0,1-.45-.488Zm-5.969,0V15.2a.522.522,0,0,1,.45-.488H7.17a.453.453,0,0,1,.488.488V26.652a.5.5,0,0,1-.488.488H3.9a.521.521,0,0,1-.45-.488Z" transform="translate(0 -5.594)" fill="#fff"/>
</svg>
