<svg id="Group_16184" data-name="Group 16184" xmlns="http://www.w3.org/2000/svg" xmlns:xlink="http://www.w3.org/1999/xlink" width="112" height="74" viewBox="0 0 112 74">
  <defs>
    <clipPath id="clip-path">
      <rect id="Rectangle_18463" data-name="Rectangle 18463" width="112" height="74" fill="#fff"/>
    </clipPath>
  </defs>
  <path id="Path_2174" data-name="Path 2174" d="M0,215.055v9.414H4.737v-.994h-3.7v-3.634H4.642v-1H1.033v-2.792h3.7v-1Z" transform="translate(0 -160.778)" fill="#fff"/>
  <g id="Group_15715" data-name="Group 15715">
    <g id="Group_15714" data-name="Group 15714" clip-path="url(#clip-path)">
      <path id="Path_2175" data-name="Path 2175" d="M33.734,220.7a3.467,3.467,0,0,1-.417,2.114,2.519,2.519,0,0,1-3.64,0,3.474,3.474,0,0,1-.415-2.112v-5.646h-1.03v5.814a3.722,3.722,0,0,0,.662,2.6,3.575,3.575,0,0,0,5.214-.006,3.711,3.711,0,0,0,.659-2.591v-5.814H33.734Z" transform="translate(-21.117 -160.779)" fill="#fff"/>
      <path id="Path_2176" data-name="Path 2176" d="M68.142,219.5a2.513,2.513,0,0,0,.7-1.841,2.451,2.451,0,0,0-1-2.108,3.486,3.486,0,0,0-2.175-.5H64.321v9.414h1.033v-4.135l2.848,4.135h1.216l-2.941-4.252a2.667,2.667,0,0,0,1.666-.717m-.335-1.863a1.555,1.555,0,0,1-.548,1.238,2.014,2.014,0,0,1-1.412.361h-.493v-3.185h.266a3.408,3.408,0,0,1,1.377.182,1.493,1.493,0,0,1,.811,1.4" transform="translate(-48.112 -160.778)" fill="#fff"/>
      <path id="Path_2177" data-name="Path 2177" d="M94.744,214.583a4.828,4.828,0,1,0,4.868,4.825,4.911,4.911,0,0,0-4.868-4.825m3.837,4.825a3.836,3.836,0,1,1-3.837-3.828,3.886,3.886,0,0,1,3.837,3.828" transform="translate(-67.227 -160.425)" fill="#fff"/>
      <path id="Path_2178" data-name="Path 2178" d="M138.686,215.055h-1.809v9.414h1.032v-4.25h.777a3.214,3.214,0,0,0,2.139-.624,2.568,2.568,0,0,0,.831-1.946,2.6,2.6,0,0,0-.889-2.018,3,3,0,0,0-2.082-.576m1.94,2.571a1.5,1.5,0,0,1-.507,1.168,1.925,1.925,0,0,1-1.409.429h-.8v-3.17h.705a2.25,2.25,0,0,1,1.429.31,1.556,1.556,0,0,1,.582,1.263" transform="translate(-102.383 -160.778)" fill="#fff"/>
      <path id="Path_2179" data-name="Path 2179" d="M163.791,224.47h4.731v-.994h-3.7v-3.634h3.6v-1h-3.6v-2.793h3.7v-1h-4.731Z" transform="translate(-122.515 -160.779)" fill="#fff"/>
      <path id="Path_2180" data-name="Path 2180" d="M188.345,222.445h1.075l1.2-2.942h3.617l1.2,2.942h1.079l-4.077-10.1Zm2.676-3.942,1.411-3.475,1.4,3.475Z" transform="translate(-140.881 -158.755)" fill="#fff"/>
      <path id="Path_2181" data-name="Path 2181" d="M234.723,213.668v7.466l-7.506-7.934v9.883h1.031v-7.34l7.508,7.994V213.668Z" transform="translate(-169.957 -159.391)" fill="#fff"/>
      <path id="Path_2182" data-name="Path 2182" d="M274.039,217.941v1.5h2.549v1.973h-2.549v3.511h-2.325v-8.952h5.135v1.97Z" transform="translate(-203.24 -161.463)" fill="#fff"/>
      <path id="Path_2183" data-name="Path 2183" d="M310.025,219.4a4.958,4.958,0,1,1-4.947-4.608,4.76,4.76,0,0,1,4.947,4.608m-7.474.015a2.53,2.53,0,1,0,5.053,0,2.532,2.532,0,0,0-5.053,0" transform="translate(-224.497 -160.579)" fill="#fff"/>
      <path id="Path_2184" data-name="Path 2184" d="M356.469,219.4a4.955,4.955,0,1,1-4.942-4.608,4.757,4.757,0,0,1,4.942,4.608m-7.468.015a2.53,2.53,0,1,0,5.052,0,2.532,2.532,0,0,0-5.052,0" transform="translate(-259.242 -160.579)" fill="#fff"/>
      <path id="Path_2185" data-name="Path 2185" d="M394.815,215.972h3.3a4.476,4.476,0,1,1,0,8.952h-3.3Zm2.325,6.984h.522a2.508,2.508,0,1,0,.023-5.014h-.545Z" transform="translate(-295.319 -161.464)" fill="#fff"/>
      <rect id="Rectangle_18461" data-name="Rectangle 18461" width="0.312" height="2.788" transform="translate(32.906 66.931)" fill="#fff"/>
      <path id="Path_2186" data-name="Path 2186" d="M139.438,267.983V265.2h.438l1.278,2.174V265.2h.289v2.788H141.2l-1.479-2.468v2.468Z" transform="translate(-104.298 -198.264)" fill="#fff"/>
      <path id="Path_2187" data-name="Path 2187" d="M154.6,267.983v-2.521h-.812V265.2h1.94v.268h-.812v2.521Z" transform="translate(-115.036 -198.264)" fill="#fff"/>
      <path id="Path_2188" data-name="Path 2188" d="M167.907,267.983V265.2h1.643v.264h-1.337v.932h.947v.258h-.947v1.069h1.4v.266Z" transform="translate(-125.593 -198.264)" fill="#fff"/>
      <path id="Path_2189" data-name="Path 2189" d="M181.21,267.984V265.2h.78a1.569,1.569,0,0,1,.849.176.623.623,0,0,1,.264.56.7.7,0,0,1-.144.452.828.828,0,0,1-.433.262l.654,1.338h-.338l-.613-1.265h-.716v1.265Zm.78-2.528h-.478v1.005h.466a1.225,1.225,0,0,0,.621-.119.416.416,0,0,0,.191-.382.434.434,0,0,0-.17-.392,1.238,1.238,0,0,0-.631-.112" transform="translate(-135.544 -198.265)" fill="#fff"/>
      <path id="Path_2190" data-name="Path 2190" d="M195.779,267.983V265.2h.438l1.278,2.174V265.2h.289v2.788h-.239l-1.479-2.468v2.468Z" transform="translate(-146.441 -198.264)" fill="#fff"/>
      <path id="Path_2191" data-name="Path 2191" d="M210.058,267.984l.859-2.788h.468l.855,2.788h-.323l-.25-.868h-1.035l-.246.868Zm.647-1.126h.878l-.416-1.453h-.043Z" transform="translate(-157.122 -198.265)" fill="#fff"/>
      <path id="Path_2192" data-name="Path 2192" d="M223.748,267.983v-2.521h-.812V265.2h1.94v.268h-.812v2.521Z" transform="translate(-166.754 -198.264)" fill="#fff"/>
      <rect id="Rectangle_18462" data-name="Rectangle 18462" width="0.312" height="2.788" transform="translate(59.757 66.931)" fill="#fff"/>
      <path id="Path_2193" data-name="Path 2193" d="M245.206,266.455a1.677,1.677,0,0,1,.3-1.048,1.02,1.02,0,0,1,1.6,0,1.988,1.988,0,0,1,0,2.1,1.015,1.015,0,0,1-1.6,0,1.679,1.679,0,0,1-.3-1.05m.312,0a1.52,1.52,0,0,0,.21.862.7.7,0,0,0,1.16,0,1.882,1.882,0,0,0,0-1.726.7.7,0,0,0-1.16,0,1.525,1.525,0,0,0-.21.864" transform="translate(-183.412 -198.131)" fill="#fff"/>
      <path id="Path_2194" data-name="Path 2194" d="M260.715,267.983V265.2h.438l1.278,2.174V265.2h.289v2.788h-.239L261,265.516v2.468Z" transform="translate(-195.013 -198.264)" fill="#fff"/>
      <path id="Path_2195" data-name="Path 2195" d="M274.994,267.984l.859-2.788h.468l.856,2.788h-.323l-.25-.868h-1.036l-.246.868Zm.647-1.126h.878L276.1,265.4h-.043Z" transform="translate(-205.694 -198.265)" fill="#fff"/>
      <path id="Path_2196" data-name="Path 2196" d="M290.072,267.983V265.2h.316v2.523h1.243v.266Z" transform="translate(-216.972 -198.264)" fill="#fff"/>
      <path id="Path_2197" data-name="Path 2197" d="M432.4,216.365l.145-.006a1.931,1.931,0,0,0,.389-.029.276.276,0,0,0,.119-.088.24.24,0,0,0,.037-.137.208.208,0,0,0-.043-.133.213.213,0,0,0-.125-.08,1.593,1.593,0,0,0-.388-.017h-.145Zm-.344,1.018-.037-1.779.363-.009c.341-.006.528-.008.568-.006a.632.632,0,0,1,.284.066.473.473,0,0,1,.17.165.524.524,0,0,1,.068.255.472.472,0,0,1-.119.333.556.556,0,0,1-.349.176.424.424,0,0,1,.128.066.718.718,0,0,1,.122.133c.011.017.057.088.133.216l.219.353-.446.011-.154-.287a1.332,1.332,0,0,0-.258-.363.4.4,0,0,0-.25-.069l-.094,0,.014.731Zm.715-2.265a1.359,1.359,0,0,0-.661.188,1.252,1.252,0,0,0-.488.509,1.339,1.339,0,0,0-.17.682,1.356,1.356,0,0,0,.193.671,1.279,1.279,0,0,0,.506.492,1.405,1.405,0,0,0,.675.165,1.349,1.349,0,0,0,1.155-.7,1.354,1.354,0,0,0-.029-1.353,1.262,1.262,0,0,0-.514-.492,1.425,1.425,0,0,0-.667-.159m-.006-.33a1.68,1.68,0,0,1,.829.2,1.591,1.591,0,0,1,.638.6,1.7,1.7,0,0,1,.242.842,1.688,1.688,0,0,1-.207.844,1.563,1.563,0,0,1-.608.631,1.683,1.683,0,0,1-.832.239,1.714,1.714,0,0,1-.84-.2,1.6,1.6,0,0,1-.633-.611,1.706,1.706,0,0,1-.236-.83,1.688,1.688,0,0,1,.21-.85,1.535,1.535,0,0,1,.608-.631,1.679,1.679,0,0,1,.829-.236" transform="translate(-322.471 -160.578)" fill="#fff" fill-rule="evenodd"/>
      <path id="Path_2198" data-name="Path 2198" d="M129.615,59.915a.577.577,0,0,0-.435-.554c-.237.134-.473.284-.711.445-.006.027-.011.052-.016.078q.259.306.544.609c.005,0,.021.007.03.007a.585.585,0,0,0,.587-.585M157.3,67.936a.583.583,0,1,0-.584-.583.582.582,0,0,0,.584.583m1-2.974a.585.585,0,1,0,.586.583.585.585,0,0,0-.586-.583m3.347-.745a.584.584,0,1,0-.586-.585.584.584,0,0,0,.586.585m-1.174-2.974a.584.584,0,1,0,.588.585.581.581,0,0,0-.588-.585m-1,2.974a.584.584,0,1,0-.584-.585.582.582,0,0,0,.584.585m-19.573,0a.579.579,0,0,0,.106-1.149c-.116.107-.225.213-.355.318-.113.1-.216.187-.326.279a.578.578,0,0,0,.575.552m-3.017,1.159c-.108.059-.239.129-.379.2.19.084.379.158.564.239a.609.609,0,0,0,.076-.272.589.589,0,0,0-.079-.273c-.065.036-.127.072-.182.1m-1.329-6.044a.576.576,0,0,0-.562.467c.195-.153.39-.306.58-.462-.008,0-.013,0-.018,0m4.346,7.437a.623.623,0,0,0-.24.051c.252.089.5.172.743.251a.575.575,0,0,0-.5-.3m-1.169-.637a.585.585,0,1,0-.583-.587.584.584,0,0,0,.583.587M168.171,60.5a.584.584,0,1,0-.584-.585.581.581,0,0,0,.584.585m1.006-1.8a.585.585,0,1,0-.581-.585.587.587,0,0,0,.581.585m1.166,1.8a.584.584,0,1,0-.58-.585.582.582,0,0,0,.58.585m-2.173,2.55a.584.584,0,1,0,.584.583.585.585,0,0,0-.584-.583m-4.347,0a.584.584,0,1,0,.583.583.583.583,0,0,0-.583-.583m-1.166-1.806a.584.584,0,1,0,.583.585.585.585,0,0,0-.583-.585m2.173,0a.584.584,0,1,0,.58.585.58.58,0,0,0-.58-.585M166,63.05a.584.584,0,1,0,0,1.167.584.584,0,1,0,0-1.167m1.01-1.806a.584.584,0,1,0,.581.585.583.583,0,0,0-.581-.585m7.688,2.974a.1.1,0,0,0,.028,0,.135.135,0,0,0-.034-.03,2.907,2.907,0,0,1-.457-.884.531.531,0,0,0-.12.334.583.583,0,0,0,.582.585M162.658,58.7a.585.585,0,1,0-.586-.585.588.588,0,0,0,.586.585m1.166,1.8a.584.584,0,1,0-.584-.585.583.583,0,0,0,.584.585m3.182-1.8a.585.585,0,1,0-.589-.585.59.59,0,0,0,.589.585M166,60.5a.584.584,0,0,0,0-1.169.584.584,0,1,0,0,1.169m-4.343,0a.584.584,0,1,0-.586-.585.583.583,0,0,0,.586.585m3.177-1.8a.585.585,0,1,0-.586-.585.588.588,0,0,0,.586.585M157.3,60.5a.584.584,0,1,0-.584-.585.582.582,0,0,0,.584.585m0,2.55a.584.584,0,1,0,.581.583.584.584,0,0,0-.581-.583m2.175-2.55a.584.584,0,1,0-.584-.585.581.581,0,0,0,.584.585m1-1.8a.585.585,0,0,0,.588-.585.577.577,0,0,0-.3-.5c-.263.051-.5.115-.754.176a.55.55,0,0,0-.112.326.583.583,0,0,0,.581.585m13.05,3.717a.53.53,0,0,0,.314-.108c-.131-.277-.322-.627-.552-1.007a.582.582,0,0,0,.238,1.115m-1.006,8.073a.585.585,0,1,0,0,1.17.585.585,0,0,0,0-1.17m-2.179,0a.585.585,0,1,0,.584.585.582.582,0,0,0-.584-.585m1.007-1.805a.585.585,0,1,0,.582.584.585.585,0,0,0-.582-.584m-9.7,1.805a.588.588,0,0,0-.537.345c.365.045.728.092,1.1.137a.584.584,0,0,0-.561-.482m13.042,0a.585.585,0,1,0,.586.585.583.583,0,0,0-.586-.585m-3.344-8.073a.584.584,0,1,0-.581-.584.581.581,0,0,0,.581.584m2.761,4.94a.584.584,0,1,0,.582-.584.582.582,0,0,0-.582.584m-.584,1.327a.585.585,0,1,0,.584.584.586.586,0,0,0-.584-.584m-14.36,1.9c.238.032.482.062.729.094a.57.57,0,0,0-.422-.19.587.587,0,0,0-.307.1m-17.676-8.752a.6.6,0,0,0-.136-.369,7.7,7.7,0,0,1-.667.91.618.618,0,0,0,.222.043.583.583,0,0,0,.581-.584m16.812-.585a.584.584,0,1,0,.586.585.586.586,0,0,0-.586-.585m-2.171,7.436a.585.585,0,1,0,.582.584.586.586,0,0,0-.582-.584m4.345-2.548a.585.585,0,1,0-.581-.587.585.585,0,0,0,.581.587m3.89,5.108a.513.513,0,0,0,.037-.17.583.583,0,1,0-1.166,0c0,.01,0,.019,0,.028.379.049.754.095,1.125.142M166,70.485a.588.588,0,0,0-.586.585.557.557,0,0,0,.107.313c.308.035.593.072.88.107a.572.572,0,0,0,.183-.42.582.582,0,0,0-.584-.585m-6.521-3.716a.583.583,0,1,0,.579.584.583.583,0,0,0-.579-.584m1,1.911a.585.585,0,1,0,.588.584.582.582,0,0,0-.588-.584m-1.587-10.569s0-.007,0-.012c-.127.044-.273.081-.4.124-.2.076-.41.166-.622.262a.567.567,0,0,0,.435.209.587.587,0,0,0,.586-.585m13.042,5.522a.59.59,0,0,0,.589.585.584.584,0,0,0,0-1.167.59.59,0,0,0-.589.583M158.306,69.85a.585.585,0,1,0-.585-.586.586.586,0,0,0,.585.586m-26.677-8.021a.538.538,0,0,0,.085.285c.282-.174.605-.388.963-.628a.578.578,0,0,0-1.048.343m47.413,4.94a.583.583,0,1,0,.588.584.586.586,0,0,0-.588-.584m-1.161-.637a.585.585,0,1,0-.586-.587.584.584,0,0,0,.586.587m1.161-1.915a.582.582,0,0,0,.537-.352c-.184-.276-.38-.545-.58-.806a.58.58,0,0,0,.043,1.158m1.01,1.915a.58.58,0,0,0,.473-.257,6.652,6.652,0,0,0-.319-.881.556.556,0,0,0-.154-.031.585.585,0,0,0,0,1.17m-36.367-2.424c.075-.182.154-.368.233-.541a.577.577,0,0,0-.251.466.51.51,0,0,0,.018.075m12.451-1.3a.584.584,0,1,0-.586-.584.585.585,0,0,0,.586.584M138.733,81a.584.584,0,1,0-.583-.585.582.582,0,0,0,.583.585m12.622,1.223a.578.578,0,0,0-.472-.564c-.138.324-.29.667-.442,1.027a.556.556,0,0,0,.334.121.581.581,0,0,0,.58-.584m-8.7-22.311a.577.577,0,0,0-.385-.543c-.091.282-.187.562-.293.818-.028.066-.066.16-.114.268a.553.553,0,0,0,.211.043.581.581,0,0,0,.581-.585m29.863.585a.556.556,0,0,0,.219-.045,8.448,8.448,0,0,0-.7-.854.572.572,0,0,0-.107.313.589.589,0,0,0,.589.585m-2.179,3.717a.584.584,0,1,0-.58-.585.583.583,0,0,0,.58.585m-1.166,1.915a.585.585,0,1,0-.581-.587.587.587,0,0,0,.581.587m0-4.888a.584.584,0,1,0,.586.585.585.585,0,0,0-.586-.585m0,7.436a.585.585,0,1,0,.586.584.585.585,0,0,0-.586-.584m3.766-3.135a.584.584,0,1,0,.585-.583.587.587,0,0,0-.585.583m-4.772,4.94a.585.585,0,1,0,.584.585.586.586,0,0,0-.584-.585m4.351-2.549a.583.583,0,0,0,0-1.167.583.583,0,1,0,0,1.167m-1.171-1.8a.585.585,0,1,0-.581-.587.582.582,0,0,0,.581.587m-1.007,1.8a.583.583,0,1,0-.58-.583.583.583,0,0,0,.58.583m-3.338-1.8a.585.585,0,1,0-.589-.587.591.591,0,0,0,.589.587M164.83,69.85a.585.585,0,0,0,0-1.17.585.585,0,1,0,0,1.17m-1.59-2.5a.583.583,0,1,0,.584-.584.583.583,0,0,0-.584.584m-.583-1.221a.585.585,0,1,0-.586-.587.588.588,0,0,0,.586.587m0,3.718a.585.585,0,1,0-.586-.586.587.587,0,0,0,.586.586M166,67.936a.583.583,0,1,0,0-1.167.583.583,0,1,0,0,1.167m2.175,0a.583.583,0,1,0-.584-.583.582.582,0,0,0,.584.583m-6.518,0a.583.583,0,1,0-.586-.583.584.584,0,0,0,.586.583m5.353.744a.585.585,0,1,0,0,1.17.585.585,0,0,0,0-1.17m-2.176-3.718a.585.585,0,1,0,.58.583.579.579,0,0,0-.58-.583M129.453,76.7a.587.587,0,0,0,.59.584.541.541,0,0,0,.336-.124c-.3-.153-.611-.319-.917-.5,0,.017-.009.027-.009.04m20.741,16.68a.574.574,0,0,0,.424.549c.121-.349.26-.712.4-1.079a.564.564,0,0,0-.24-.054.582.582,0,0,0-.583.585m.583-4.3a.584.584,0,1,0,.58.584.582.582,0,0,0-.58-.584m-2.759-1.227c-.076.152-.145.3-.219.452a.594.594,0,0,0,.219-.446Zm.585,1.227a.584.584,0,1,0,.58.584.585.585,0,0,0-.58-.584m2.6,2.5a.56.56,0,0,0,.174.411c.136-.336.285-.669.438-.991-.011,0-.019,0-.027,0a.586.586,0,0,0-.585.585m-1.59-.585a.585.585,0,1,0,.585.585.584.584,0,0,0-.585-.585m2.175-3.718a.585.585,0,1,0,.584.586.587.587,0,0,0-.584-.586m1.59.586a.57.57,0,0,0,.116.326c.22-.27.465-.554.73-.842a.561.561,0,0,0-.261-.07.584.584,0,0,0-.585.586m-.422-2.5a.585.585,0,1,0,.584.584.583.583,0,0,0-.584-.584m-.584,4.3a.676.676,0,0,0,.029.153c.078-.135.149-.272.222-.4.056-.1.125-.2.192-.311a.577.577,0,0,0-.443.557m-13.633-6.107a.578.578,0,0,0-.567.521c.315.172.619.343.923.515a.563.563,0,0,0,.228-.451.582.582,0,0,0-.584-.586m-9.486-5.586c.091.093.187.182.3.285a.574.574,0,0,0-.3-.285m3.636.252a.562.562,0,0,0-.09.29.586.586,0,0,0,.586.582.573.573,0,0,0,.57-.526c-.356-.108-.711-.222-1.066-.346m1.5,1.616a.584.584,0,1,0,.587.584.583.583,0,0,0-.587-.584M131.2,77.921a.585.585,0,1,0,.584.587.585.585,0,0,0-.584-.587m5.356,1.913a.584.584,0,1,0,.586.584.582.582,0,0,0-.586-.584m17.4,3.719a.584.584,0,1,0,.584.586.582.582,0,0,0-.584-.586m-16.231-1.914a.586.586,0,1,0,.585.588.586.586,0,0,0-.585-.588m-2.171,0a.585.585,0,0,0-.584.588.556.556,0,0,0,.021.11c.244.15.482.3.728.44a.575.575,0,0,0,.415-.55.585.585,0,0,0-.58-.588m3.761.588a.57.57,0,0,0,.9.481c0-.02,0-.038,0-.059,0-.158,0-.314,0-.456s.006-.3.006-.445a.565.565,0,0,0-.318-.11.586.586,0,0,0-.585.588m-7.1-2.392a.576.576,0,0,0-.465.249c.3.229.6.457.917.689a.558.558,0,0,0,.129-.354.582.582,0,0,0-.58-.584m23.921-14.872a.585.585,0,1,0,.582.583.584.584,0,0,0-.582-.583m8.206,13.284c-.358.048-.721.094-1.076.143a.465.465,0,0,0-.024.119.583.583,0,0,0,1.166,0,.625.625,0,0,0-.066-.262m1.919-.255-.656.087a.6.6,0,0,0-.194.43.587.587,0,0,0,.586.582.58.58,0,0,0,.263-1.1m-2.016,2.427a.577.577,0,0,0,.031.144q.513-.222,1.042-.446a.578.578,0,0,0-.486-.281.586.586,0,0,0-.586.584m5.573-2.152c.26-.1.514-.2.752-.3a.58.58,0,0,0-.225-.047.573.573,0,0,0-.527.345m10.9-11.2a.558.558,0,0,0-.084.283.6.6,0,0,0,.108.321c0-.025.006-.05.006-.073,0-.186-.02-.357-.03-.532m-2.84,5.33a.586.586,0,0,0-.586.584c0,.016.01.029.01.044a3.01,3.01,0,0,1,.5.347c.046.048.1.109.155.177a.576.576,0,0,0,.5-.568.582.582,0,0,0-.58-.584m2.171-3.719a.585.585,0,0,0,0,1.17.568.568,0,0,0,.468-.25c.036-.175.057-.336.084-.5a.576.576,0,0,0-.552-.419m-1.01,1.805a.585.585,0,1,0,.588.585.587.587,0,0,0-.588-.585m-17.946,8.18a.577.577,0,0,0,1.133-.146c-.379.051-.763.1-1.133.146m-3.374,5.472c0,.009.009.021.009.031.262-.2.521-.387.789-.573a.547.547,0,0,0-.212-.043.586.586,0,0,0-.585.586m-.42-2.5a.586.586,0,1,0,.581.588.588.588,0,0,0-.581-.588m-1.167,1.914a.584.584,0,1,0,.582.586.584.584,0,0,0-.582-.586m2.171-3.719a.584.584,0,1,0,.586.584.586.586,0,0,0-.586-.584m1.17,1.8a.586.586,0,1,0,.579.588.587.587,0,0,0-.579-.588m3.182-1.8a.584.584,0,1,0,.583.584.585.585,0,0,0-.583-.584m-7.531,5.524a.583.583,0,0,0-.585.584.577.577,0,0,0,.48.566c.215-.214.44-.425.669-.639a.572.572,0,0,0-.564-.512m5.978-3.323c.223-.115.464-.235.72-.359a.541.541,0,0,0-.72.359m-.626-2.2a.584.584,0,1,0,.588.584.581.581,0,0,0-.588-.584m7.692-1.913a.583.583,0,0,0-.248,1.11l.79-.323a.554.554,0,0,0,.042-.2.585.585,0,0,0-.584-.587M130.043,61.244a.626.626,0,0,0-.253.059c.253.245.519.486.795.722a.62.62,0,0,0,.039-.2.585.585,0,0,0-.58-.585m-2.176,14.872a.585.585,0,0,0-.319.108c.267.292.531.574.772.826a.606.606,0,0,0,.13-.35.584.584,0,0,0-.583-.585m48.422-6.852a.583.583,0,1,0-.585.586.586.586,0,0,0,.585-.586m-.585-3.132a.585.585,0,1,0,0-1.17.585.585,0,0,0,0,1.17m1.169,1.8a.583.583,0,1,0-.584-.583.582.582,0,0,0,.584.583M149.182,85.942a.57.57,0,0,0-.1-.314c-.136.294-.282.589-.422.888a.576.576,0,0,0,.524-.574m-6.68-20.4a.576.576,0,0,0,.266.479c.125-.347.256-.693.392-1.047a.727.727,0,0,0-.073-.014.582.582,0,0,0-.585.583M135.556,79.09a.53.53,0,0,0,.179-.037c-.031-.009-.071-.014-.1-.023-.173-.044-.337-.091-.51-.136a.583.583,0,0,0,.434.2m6.522-16.04a.584.584,0,1,0,.581.583.586.586,0,0,0-.581-.583m-.585,4.3a.243.243,0,0,0,.018.071c.227.07.454.143.682.21.08-.221.17-.474.254-.722a.569.569,0,0,0-.369-.142.586.586,0,0,0-.585.584m13.048,1.911a.576.576,0,0,0-.472-.561c-.078.409-.149.792-.215,1.127a.665.665,0,0,0,.1.02.582.582,0,0,0,.584-.586M131.2,60.5a.584.584,0,1,0-.581-.585.58.58,0,0,0,.581.585m9.708,4.462a.585.585,0,1,0,.581.583.583.583,0,0,0-.581-.583m14.215,2.974a.583.583,0,1,0-.585-.583.583.583,0,0,0,.585.583m-5.519,20.5a.585.585,0,1,0-.583-.584.586.586,0,0,0,.583.584M132.214,58.7a.583.583,0,0,0,.58-.585.6.6,0,0,0-.042-.223c-.375.119-.744.242-1.091.37a.571.571,0,0,0,.553.438m1.166,1.8a.584.584,0,0,0,0-1.169.584.584,0,1,0,0,1.169m1.005-1.8a.585.585,0,1,0-.581-.585.586.586,0,0,0,.581.585m1.993-.037c.113-.1.232-.2.342-.3l.4-.37a.572.572,0,0,0-.56-.465.581.581,0,0,0-.182,1.133m19.329,4.975a.585.585,0,0,0-.579-.583c-.038.206-.074.388-.1.529s-.058.352-.1.6a.591.591,0,0,0,.2.039.583.583,0,0,0,.58-.585m22.352-1.762a.254.254,0,0,0-.038-.048c-.022.187-.044.379-.08.576a.573.573,0,0,0,.375-.2Zm-33.81-2.539a.584.584,0,1,0,.586.583.585.585,0,0,0-.586-.583m1.595.583c0,.01.007.018.007.024.032-.049.07-.1.109-.147a.944.944,0,0,0-.085-.051.71.71,0,0,0-.031.174m4.349,24.223a.581.581,0,0,0-.212-.44.059.059,0,0,1-.016.028c-.14.314-.3.642-.45.976a.571.571,0,0,0,.093.019.586.586,0,0,0,.585-.583m26.679-13.653a.585.585,0,1,0,.579.585.585.585,0,0,0-.579-.585M125.31,73.42c.029.024.066.039.1.059-.056-.059-.111-.117-.169-.175a.876.876,0,0,1,.074.117m.974,1.327c.166.206.331.411.5.612.024,0,.044.013.07.013a.578.578,0,0,0,.43-.2c-.3-.242-.59-.485-.879-.738a.546.546,0,0,0-.123.311m16.8-13.5a.584.584,0,1,0,.579.585.583.583,0,0,0-.579-.585m0-2.548a.582.582,0,0,0,.393-.158c-.3-.127-.6-.237-.9-.348-.008.039-.014.078-.021.118a.569.569,0,0,0,.533.388M177.88,68.68a.585.585,0,1,0,.58.584.586.586,0,0,0-.58-.584m-26.1,14.873a.584.584,0,1,0,.584.586.585.585,0,0,0-.584-.586m1.168-.743a.586.586,0,1,0-.584-.584.585.585,0,0,0,.584.584M175.7,72.4a.581.581,0,0,0-.4.163c.314.04.558.073.692.091.069.014.132.025.2.038a.564.564,0,0,0-.491-.292M150.776,86.527a.585.585,0,1,0-.583-.585.581.581,0,0,0,.583.585M151.783,81a.584.584,0,0,0,0-1.169.6.6,0,0,0-.191.039.1.1,0,0,1-.009.034c-.091.253-.2.517-.306.79a.586.586,0,0,0,.506.306m7.693-1.913a.584.584,0,0,0,.489-.283l-.908.11a.589.589,0,0,0,.418.173M156.134,81a.584.584,0,1,0-.586-.585.583.583,0,0,0,.586.585m-1.007.636a.586.586,0,1,0,.58.588.586.586,0,0,0-.58-.588M153.958,81a.584.584,0,1,0-.585-.585.581.581,0,0,0,.585.585" transform="translate(-93.676 -43.007)" fill="#fff"/>
      <path id="Path_2199" data-name="Path 2199" d="M161.466,42.273a19.989,19.989,0,0,1-1.538,2.647,13.671,13.671,0,0,1-2.653,3.037,39.16,39.16,0,0,1-5.8,4.262,19.833,19.833,0,0,0,2.007,1.225c.162.084.323.156.483.237.574-.279,1.484-.726,1.858-.938a13.129,13.129,0,0,0,2.562-1.838,6.057,6.057,0,0,0,1.954-2.7,8.852,8.852,0,0,0,.561-1.985,34.139,34.139,0,0,0,.57-3.948" transform="translate(-113.299 -31.577)" fill="#fff"/>
      <path id="Path_2200" data-name="Path 2200" d="M196.879,144.341c-.305.853-.673,1.946-.527,1.488.066-.232.272-1.181.3-1.481-.543.02-1.146.036-1.758.045-.115.467-.24.975-.332,1.344-.216.854-1.724,6.577-1.724,6.577s1.087-4.976,1.732-7.917l-.137,0c-2.04.017-4.014-.065-4.238-.081-.007.927-.022,1.8-.028,2.721-.017,2,.072,3.676.156,4.867s.388,4.757.486,6.45.246,1.725.246,1.725c.3.106.855-1.3,1.978-3.417s2.967-5.9,4.243-8.677c.693-1.506,1.188-2.7,1.581-3.736,0,0-.837.045-1.983.088m-4.163.052.257,0c-.169.524-.458,1.368-.566,1.69,0,0,.186-.987.309-1.695" transform="translate(-142.245 -107.846)" fill="#fff"/>
      <path id="Path_2201" data-name="Path 2201" d="M207.26,34.486c-1.193,1.248-3.556,3.2-5.123,4.883a14.919,14.919,0,0,0-2.955,4.339c-.649,1.365-1.314,3.3-1.758,4.581,0,0,1.229.357,1.831.5,1.732.419,3.609.741,5.469,1.018l-.391-.062c.109-.514.211-1.018.288-1.436.175-.982.586-4.074.874-6.131a16.83,16.83,0,0,1,1.229-4.1,71.233,71.233,0,0,0-1.267,7.885c-.24,1.627-.5,3-.662,3.855.537.078,1.072.154,1.6.227.327-1.685,1.106-5.744,1.269-6.712.2-1.251.991-4.812,1.212-5.72.131-.524.624-2.486,1.3-4.646a11.687,11.687,0,0,1,.874-2.22c-1.061,1.263-2.8,2.693-3.793,3.741M200.5,48.128c-.01.163-.06.515-.109.91-.155-.032-.3-.065-.455-.1.142-.957.4-2.377.467-2.8a12.008,12.008,0,0,1,.587-2.515s-.445,4.091-.49,4.507m3.013-4.044c-.075.587-.341,2.244-.482,3.08-.074.427-.3,1.654-.413,2.3-.162-.026-.319-.058-.477-.086.189-1.085.683-3.955.831-4.755a16.517,16.517,0,0,1,.98-3.324s-.369,2.191-.437,2.781" transform="translate(-147.673 -22.985)" fill="#fff"/>
      <path id="Path_2202" data-name="Path 2202" d="M167.7,46.094c-.707-.1-4.8-.614-6.12-.748s-10.132-1.245-13.043-1.63-7.819-.92-11.624-1.837a48.75,48.75,0,0,1-11.574-4.157,21.712,21.712,0,0,1-8.144-7.68,12.73,12.73,0,0,1-2.005-6.226,15.309,15.309,0,0,1,.224-3.658,7.994,7.994,0,0,0-.454,2.393c-.154,1.359-.193,4.9-.251,6.187s-.135,5.116-.189,5.594a12.171,12.171,0,0,0-.1,2.318,16.769,16.769,0,0,0,.8,3.293,14.881,14.881,0,0,0,5.15,6.475,19.64,19.64,0,0,0,7.5,3.333,40.852,40.852,0,0,0,7.054.848c.337.02,3.465.065,6.636-.108,2.691-.145,5.4-.5,6.659-.6,2.731-.232,13.21-1.67,14.453-1.841s5.393-.882,5.582-.957.536-.326.536-.518-.379-.381-1.089-.478M116.008,31.437a20.883,20.883,0,0,0,2.545,3.935,25.043,25.043,0,0,0,9.261,6.335,63.445,63.445,0,0,0,14.169,3.376c1.251.162,3.177.385,4.035.46s4.264.316,4.264.316.04.086-.085.095c-.065.008-1.344.029-3.13-.013-1.727-.04-3.714-.2-4.956-.312a71.228,71.228,0,0,1-7.624-1.227,47.193,47.193,0,0,1-7.461-2.248,27.323,27.323,0,0,1-6.35-3.765,15.333,15.333,0,0,1-4.014-5.036,12.4,12.4,0,0,1-.918-2.444Zm46.937,15.61c-.126.008-2.08.173-2.274.173s-1.889.185-2.383.2-2.619.111-3.347.14-2.834.129-3.349.118-3.149.07-4.271.08a91.315,91.315,0,0,1-11.381-.378,40.185,40.185,0,0,1-7.915-1.47,25.147,25.147,0,0,1-7.995-4.135,12.276,12.276,0,0,1-3.436-4.644,22.378,22.378,0,0,1-.9-2.756,19.466,19.466,0,0,0,3.626,5.586c2.578,2.692,6.7,4.316,9.421,5.176,5.876,1.854,13.262,2.034,14.132,2.08,1.648.086,3.606.115,4.953.134s3.523,0,4.836-.037,3.007-.087,3.818-.1,3.041-.095,3.748-.115,2.446-.125,2.726-.125.113.058-.013.067" transform="translate(-85.566 -15.071)" fill="#fff"/>
      <path id="Path_2203" data-name="Path 2203" d="M137.7,4.379c-1.061-2.063-3.465-3.158-4.464-3.56a13.9,13.9,0,0,0-5.851-.8l-.13.018a7.57,7.57,0,0,0-5.32,2.388,5.045,5.045,0,0,0-1.361,2.581,15.581,15.581,0,0,0-.1,4.327,14.472,14.472,0,0,0,1.073,3.756,14.486,14.486,0,0,1,4.07-2.312,11.229,11.229,0,0,1,7.522-.542,7.322,7.322,0,0,1,3.392,1.856,17.268,17.268,0,0,0,1.56-3.055,8.184,8.184,0,0,0,.229-1.983,5.785,5.785,0,0,0-.618-2.679m-9.634,1.171c-3.444.259-4.995,1.593-6.715,3.968,1.321-2.754,2.868-4.239,6.416-4.668,3.932-.478,7.625.56,9.429,4.151-2.141-3.18-5.7-3.709-9.13-3.451m1.443-2.891c-2.99.019-5.316.415-7.744,2.931,2.125-3.058,4.645-3.573,7.574-3.573,3.025,0,6.139,1,7.863,3.942-1.609-2.317-5.02-3.317-7.693-3.3" transform="translate(-90.035 0)" fill="#fff"/>
      <path id="Path_2204" data-name="Path 2204" d="M270.735,19.181a15.883,15.883,0,0,0-2.409-5.3,13.688,13.688,0,0,0-3.2-3.425,12.345,12.345,0,0,0-4.546-2.141,5.386,5.386,0,0,0-4.118.59,11.018,11.018,0,0,0-3.083,3.628,28.192,28.192,0,0,0-1.488,3.226,12.128,12.128,0,0,1,5.889.054,21.666,21.666,0,0,1,4.2,1.653,25.77,25.77,0,0,1,5.476,3.923,12.262,12.262,0,0,1,2.7,4.164,2.239,2.239,0,0,0,.361.85c.158.2.311.242.488-.108a7.087,7.087,0,0,0,.43-2.842,14.448,14.448,0,0,0-.7-4.266m-14.569-8.375s2.474-2.142,6.819.214c3.276,1.777,5.4,6.063,5.432,6.125.078.145-.038.088-.091-.03a19.532,19.532,0,0,0-5.883-5.71,8.355,8.355,0,0,0-6.277-.6M269.152,20.9a32.516,32.516,0,0,0-3.441-4.246,13.438,13.438,0,0,0-5.762-3.531,8.574,8.574,0,0,0-5.528.1,6.4,6.4,0,0,1,6.02-.646c2.077.687,5.475,2.752,8.743,8.261.081.107.14.265-.032.062" transform="translate(-188.414 -6.082)" fill="#fff"/>
    </g>
  </g>
</svg>
