<svg xmlns="http://www.w3.org/2000/svg" width="64" height="64" viewBox="0 0 64 64">
  <g id="Group_16569" data-name="Group 16569" transform="translate(0.257)">
    <rect id="Rectangle_18157" data-name="Rectangle 18157" width="64" height="64" transform="translate(-0.257)" fill="#252c30" opacity="0"/>
    <path id="envelope-o" d="M46.946,35.208V13.542A16.605,16.605,0,0,1,45,15.4q-7.561,5.811-12.018,9.535-1.439,1.213-2.341,1.89A12.977,12.977,0,0,1,28.2,28.2a7.089,7.089,0,0,1-2.893.691H25.25a7.079,7.079,0,0,1-2.892-.691,13.038,13.038,0,0,1-2.441-1.368q-.9-.677-2.341-1.89Q13.119,21.215,5.558,15.4a16.6,16.6,0,0,1-1.946-1.862V35.209a.916.916,0,0,0,.9.9H46.043a.916.916,0,0,0,.9-.9Zm0-29.651V4.866L46.931,4.5l-.084-.352-.154-.254-.254-.212-.395-.07H4.514a.916.916,0,0,0-.9.9,9.874,9.874,0,0,0,4.147,8.012q5.445,4.289,11.313,8.943.17.14.987.833t1.3,1.057q.48.365,1.255.889a7.375,7.375,0,0,0,1.425.777,3.386,3.386,0,0,0,1.213.254h.056a3.338,3.338,0,0,0,1.213-.254,7.574,7.574,0,0,0,1.425-.775q.777-.521,1.254-.889T30.5,22.3q.82-.69.987-.833,5.869-4.655,11.313-8.943a13.263,13.263,0,0,0,2.835-3.258,7.056,7.056,0,0,0,1.313-3.71Zm3.611-1.043V35.208a4.526,4.526,0,0,1-4.514,4.514H4.514A4.346,4.346,0,0,1,1.326,38.4,4.346,4.346,0,0,1,0,35.208V4.514A4.346,4.346,0,0,1,1.326,1.326,4.346,4.346,0,0,1,4.514,0H46.041a4.346,4.346,0,0,1,3.188,1.326,4.346,4.346,0,0,1,1.326,3.188Z" transform="translate(6.465 12.139)" fill="#fff"/>
  </g>
</svg>
