<svg xmlns="http://www.w3.org/2000/svg" width="20" height="20" viewBox="0 0 20 20">
  <g id="Group_15587" data-name="Group 15587" transform="translate(-8622 75)">
    <rect id="Rectangle_3633" data-name="Rectangle 3633" width="20" height="20" transform="translate(8622 -75)" fill="none"/>
    <path id="phone" d="M14.592,12.3l-2.086,2.07a1.51,1.51,0,0,1-1.114.423,9.649,9.649,0,0,1-4.784-1.8A18.454,18.454,0,0,1,1.024,6.9,7.881,7.881,0,0,1,0,3.431,1.519,1.519,0,0,1,.427,2.3L2.514.217A.69.69,0,0,1,3.643.4L5.321,3.588a.924.924,0,0,1-.188,1.051l-.769.768a.379.379,0,0,0-.079.219A6.553,6.553,0,0,0,6.262,8.542,6.555,6.555,0,0,0,9,10.479a.433.433,0,0,0,.4-.039l.894-.909a1.021,1.021,0,0,1,1.082-.157h.016l3.027,1.787a.729.729,0,0,1,.173,1.144Z" transform="translate(8624.602 -72.398)" fill="#fff"/>
  </g>
</svg>
