<svg xmlns="http://www.w3.org/2000/svg" width="64" height="64" viewBox="0 0 64 64">
  <g id="Group_16569" data-name="Group 16569" transform="translate(0.256 0)">
    <rect id="Rectangle_18157" data-name="Rectangle 18157" width="64" height="64" transform="translate(-0.256 0)" fill="#fff" opacity="0"/>
    <path id="phone" d="M40.241,45.045h-.272C8.475,43.234,4,16.661,3.38,8.552A4.808,4.808,0,0,1,7.8,3.375h8.831a3.205,3.205,0,0,1,2.982,2.019l2.435,5.995a3.205,3.205,0,0,1-.705,3.462L17.932,18.3A15.017,15.017,0,0,0,30.08,30.477l3.477-3.446a3.205,3.205,0,0,1,3.477-.657l6.042,2.42a3.205,3.205,0,0,1,1.973,2.98v8.462A4.808,4.808,0,0,1,40.241,45.045ZM8.188,6.58a1.6,1.6,0,0,0-1.6,1.6v.128C7.323,17.8,12.05,40.237,40.146,41.84a1.6,1.6,0,0,0,1.7-1.506V31.775L35.8,29.354l-4.6,4.567-.769-.1C16.492,32.078,14.6,18.134,14.6,17.99l-.1-.769,4.552-4.6-2.4-6.04Z" transform="translate(7.493 7.19)" fill="#fff"/>
  </g>
</svg>
