<svg xmlns="http://www.w3.org/2000/svg" width="20" height="20" viewBox="0 0 20 20">
  <g id="Group_15587" data-name="Group 15587" transform="translate(-8622 75)">
    <rect id="Rectangle_3633" data-name="Rectangle 3633" width="20" height="20" transform="translate(8622 -75)" fill="none"/>
    <path id="Path_2157" data-name="Path 2157" d="M10.363,2a.886.886,0,0,0-.574.246L8.148,3.723,6.1,3.395a.848.848,0,0,0-.985.738L4.784,6.185,2.9,7.169a.943.943,0,0,0-.41,1.149l.985,1.887-.9,1.887A1.015,1.015,0,0,0,2.9,13.241l1.887.985.328,2.051a.909.909,0,0,0,.985.738l2.051-.328,1.477,1.477a.793.793,0,0,0,1.149,0l1.477-1.477,2.051.328a.848.848,0,0,0,.985-.738l.328-2.051,1.887-.985a.83.83,0,0,0,.328-1.149l-.738-1.887.9-1.887a1.015,1.015,0,0,0-.328-1.149l-1.887-.985L15.45,4.133a.909.909,0,0,0-.985-.738l-2.051.328L10.937,2.246A.886.886,0,0,0,10.363,2Z" transform="translate(8621.759 -75.205)" fill="#fff"/>
  </g>
</svg>
